<?xml version="1.0" encoding="UTF-8" standalone="no"?>
<!-- Created with Inkscape (http://www.inkscape.org/) -->

<svg
   xmlns:dc="http://purl.org/dc/elements/1.1/"
   xmlns:cc="http://creativecommons.org/ns#"
   xmlns:rdf="http://www.w3.org/1999/02/22-rdf-syntax-ns#"
   xmlns:svg="http://www.w3.org/2000/svg"
   xmlns="http://www.w3.org/2000/svg"
   xmlns:sodipodi="http://sodipodi.sourceforge.net/DTD/sodipodi-0.dtd"
   xmlns:inkscape="http://www.inkscape.org/namespaces/inkscape"
   width="34.513176mm"
   height="8.1863899mm"
   viewBox="0 0 122.29078 29.006893"
   id="svg5122"
   version="1.1"
   inkscape:version="0.91 r13725"
   sodipodi:docname="rama-logo-big.svg">
  <defs
     id="defs5124" />
  <sodipodi:namedview
     id="base"
     pagecolor="#ffffff"
     bordercolor="#666666"
     borderopacity="1.0"
     inkscape:pageopacity="0.0"
     inkscape:pageshadow="2"
     inkscape:zoom="3.959798"
     inkscape:cx="137.13663"
     inkscape:cy="33.781908"
     inkscape:document-units="px"
     inkscape:current-layer="layer1"
     showgrid="false"
     inkscape:window-width="1855"
     inkscape:window-height="1056"
     inkscape:window-x="1745"
     inkscape:window-y="24"
     inkscape:window-maximized="1"
     fit-margin-top="0"
     fit-margin-left="0"
     fit-margin-right="0"
     fit-margin-bottom="0" />
  <metadata
     id="metadata5127">
    <rdf:RDF>
      <cc:Work
         rdf:about="">
        <dc:format>image/svg+xml</dc:format>
        <dc:type
           rdf:resource="http://purl.org/dc/dcmitype/StillImage" />
        <dc:title></dc:title>
      </cc:Work>
    </rdf:RDF>
  </metadata>
  <g
     inkscape:label="Layer 1"
     inkscape:groupmode="layer"
     id="layer1"
     transform="translate(-87.000685,-804.44238)">
    <path
       style="color:#000000;font-style:normal;font-variant:normal;font-weight:normal;font-stretch:normal;font-size:medium;line-height:normal;font-family:sans-serif;text-indent:0;text-align:start;text-decoration:none;text-decoration-line:none;text-decoration-style:solid;text-decoration-color:#000000;letter-spacing:normal;word-spacing:normal;text-transform:none;direction:ltr;block-progression:tb;writing-mode:lr-tb;baseline-shift:baseline;text-anchor:start;white-space:normal;clip-rule:nonzero;display:inline;overflow:visible;visibility:visible;opacity:1;isolation:auto;mix-blend-mode:normal;color-interpolation:sRGB;color-interpolation-filters:linearRGB;solid-color:#000000;solid-opacity:1;fill:#ff0000;fill-opacity:1;fill-rule:evenodd;stroke:none;stroke-width:3;stroke-linecap:butt;stroke-linejoin:miter;stroke-miterlimit:4;stroke-dasharray:none;stroke-dashoffset:0;stroke-opacity:1;color-rendering:auto;image-rendering:auto;shape-rendering:auto;text-rendering:auto;enable-background:accumulate"
       d="m 98.099488,813.54204 c -0.384213,-0.01 -0.774291,0.0909 -1.12228,0.31332 -0.629748,0.40251 -0.949524,1.1007 -0.909641,1.79771 -3.998754,2.71677 -5.429511,4.47451 -5.691354,6.07425 -0.146135,0.89283 0.253356,1.67992 0.673628,2.07601 0.420276,0.3961 0.894341,0.54214 0.894341,0.54214 l 0.612529,-1.89872 c 0,0 -0.06635,-0.0274 -0.138225,-0.0952 -0.07188,-0.0677 -0.116986,-0.0346 -0.0734,-0.30093 0.07792,-0.47606 1.062766,-2.10833 4.832875,-4.72745 0.604314,0.29455 1.340703,0.28345 1.948243,-0.10486 0.927966,-0.59311 1.199416,-1.82862 0.606302,-2.75659 -0.37069,-0.58 -0.992666,-0.9033 -1.633023,-0.91969 z"
       id="path4326"
       inkscape:connector-curvature="0"
       inkscape:transform-center-x="1.645555"
       inkscape:transform-center-y="3.295224" />
    <path
       style="color:#000000;font-style:normal;font-variant:normal;font-weight:normal;font-stretch:normal;font-size:medium;line-height:normal;font-family:sans-serif;text-indent:0;text-align:start;text-decoration:none;text-decoration-line:none;text-decoration-style:solid;text-decoration-color:#000000;letter-spacing:normal;word-spacing:normal;text-transform:none;direction:ltr;block-progression:tb;writing-mode:lr-tb;baseline-shift:baseline;text-anchor:start;white-space:normal;clip-rule:nonzero;display:inline;overflow:visible;visibility:visible;opacity:1;isolation:auto;mix-blend-mode:normal;color-interpolation:sRGB;color-interpolation-filters:linearRGB;solid-color:#000000;solid-opacity:1;fill:#333333;fill-opacity:1;fill-rule:evenodd;stroke:none;stroke-width:0.69999999;stroke-linecap:butt;stroke-linejoin:miter;stroke-miterlimit:4;stroke-dasharray:none;stroke-dashoffset:0;stroke-opacity:1;color-rendering:auto;image-rendering:auto;shape-rendering:auto;text-rendering:auto;enable-background:accumulate"
       d="m 97.918162,804.44594 c -1.809623,0.0456 -3.63305,0.52911 -5.306129,1.49506 -2.676933,1.54552 -4.485421,4.04209 -5.228199,6.81419 -0.74279,2.77211 -0.424548,5.83757 1.120976,8.5145 1.545527,2.67693 4.042085,4.48803 6.814194,5.23079 2.772097,0.74279 5.838866,0.42325 8.515786,-1.12227 5.35386,-3.09105 7.19827,-9.97613 4.10723,-15.32999 -2.12511,-3.68078 -6.04268,-5.70258 -10.023858,-5.60228 z m 0.08054,2.64722 c 3.034992,-0.0825 6.009412,1.46038 7.640312,4.28517 2.3722,4.10878 0.97447,9.32466 -3.13432,11.69687 -2.0544,1.1861 -4.378659,1.42238 -6.497253,0.8547 -1.334463,-0.35756 -2.5796,-1.03371 -3.614924,-1.99776 -0.104758,-0.26432 -0.190184,-0.55419 -0.228613,-0.86768 -0.149934,-1.2231 0.235737,-2.89638 3.260315,-4.89567 l 0.480605,0.83131 1.991262,-3.45385 -3.986419,-0.002 0.518272,0.89756 c -2.338071,1.55262 -3.545386,3.194 -4.024087,4.70473 -0.828049,-1.84697 -0.946534,-3.85195 -0.450732,-5.7023 0.567676,-2.1186 1.934625,-4.01351 3.989022,-5.19963 1.283995,-0.74131 2.677016,-1.11466 4.05656,-1.15215 z"
       id="path4326-7"
       inkscape:connector-curvature="0" />
    <text
       sodipodi:linespacing="100%"
       id="text4165-2"
       y="815.75732"
       x="114.09424"
       style="font-style:normal;font-variant:normal;font-weight:normal;font-stretch:normal;font-size:24.06044388px;line-height:100%;font-family:Vestula;-inkscape-font-specification:Vestula;text-align:start;letter-spacing:0px;word-spacing:0px;text-anchor:start;display:inline;fill:#666666;fill-opacity:1;stroke:none;stroke-width:1px;stroke-linecap:butt;stroke-linejoin:miter;stroke-opacity:1"
       xml:space="preserve"
       inkscape:export-xdpi="150"
       inkscape:export-ydpi="150"><tspan
         style="font-style:normal;font-variant:normal;font-weight:bold;font-stretch:normal;font-size:13.12096024px;font-family:Vestula;-inkscape-font-specification:'Vestula Bold';text-align:start;letter-spacing:-0.27731371px;text-anchor:start;fill:#333333;fill-opacity:1"
         y="815.75732"
         x="114.09424"
         id="tspan4167-6"
         sodipodi:role="line"
         dx="0">RaMa-Scene</tspan><tspan
         style="font-style:italic;font-variant:normal;font-weight:normal;font-stretch:normal;font-size:9.18467236px;line-height:100%;font-family:Vestula;-inkscape-font-specification:'Vestula Italic';text-align:start;text-anchor:start;fill:#ff0000"
         y="825.7395"
         x="114.09424"
         sodipodi:role="line"
         id="tspan5156">Beta</tspan></text>
  </g>
</svg>
