<?xml version="1.0" encoding="UTF-8" standalone="no"?>
<!-- Created with Inkscape (http://www.inkscape.org/) -->

<svg
   xmlns:dc="http://purl.org/dc/elements/1.1/"
   xmlns:cc="http://creativecommons.org/ns#"
   xmlns:rdf="http://www.w3.org/1999/02/22-rdf-syntax-ns#"
   xmlns:svg="http://www.w3.org/2000/svg"
   xmlns="http://www.w3.org/2000/svg"
   xmlns:sodipodi="http://sodipodi.sourceforge.net/DTD/sodipodi-0.dtd"
   xmlns:inkscape="http://www.inkscape.org/namespaces/inkscape"
   width="37.133816mm"
   height="8.8079939mm"
   viewBox="0 0 131.57651 31.209427"
   id="svg5122"
   version="1.1"
   inkscape:version="0.91 r13725"
   sodipodi:docname="rama-logo.svg">
  <defs
     id="defs5124" />
  <sodipodi:namedview
     id="base"
     pagecolor="#ffffff"
     bordercolor="#666666"
     borderopacity="1.0"
     inkscape:pageopacity="0.0"
     inkscape:pageshadow="2"
     inkscape:zoom="1.4"
     inkscape:cx="-197.65475"
     inkscape:cy="-123.45775"
     inkscape:document-units="px"
     inkscape:current-layer="layer1"
     showgrid="false"
     inkscape:window-width="1855"
     inkscape:window-height="1056"
     inkscape:window-x="1745"
     inkscape:window-y="24"
     inkscape:window-maximized="1"
     fit-margin-top="0"
     fit-margin-left="0"
     fit-margin-right="0"
     fit-margin-bottom="0" />
  <metadata
     id="metadata5127">
    <rdf:RDF>
      <cc:Work
         rdf:about="">
        <dc:format>image/svg+xml</dc:format>
        <dc:type
           rdf:resource="http://purl.org/dc/dcmitype/StillImage" />
        <dc:title></dc:title>
      </cc:Work>
    </rdf:RDF>
  </metadata>
  <g
     inkscape:label="Layer 1"
     inkscape:groupmode="layer"
     id="layer1"
     transform="translate(-82.000685,-807.29952)">
    <path
       style="color:#000000;font-style:normal;font-variant:normal;font-weight:normal;font-stretch:normal;font-size:medium;line-height:normal;font-family:sans-serif;text-indent:0;text-align:start;text-decoration:none;text-decoration-line:none;text-decoration-style:solid;text-decoration-color:#000000;letter-spacing:normal;word-spacing:normal;text-transform:none;direction:ltr;block-progression:tb;writing-mode:lr-tb;baseline-shift:baseline;text-anchor:start;white-space:normal;clip-rule:nonzero;display:inline;overflow:visible;visibility:visible;opacity:1;isolation:auto;mix-blend-mode:normal;color-interpolation:sRGB;color-interpolation-filters:linearRGB;solid-color:#000000;solid-opacity:1;fill:#ff0000;fill-opacity:1;fill-rule:evenodd;stroke:none;stroke-width:3;stroke-linecap:butt;stroke-linejoin:miter;stroke-miterlimit:4;stroke-dasharray:none;stroke-dashoffset:0;stroke-opacity:1;color-rendering:auto;image-rendering:auto;shape-rendering:auto;text-rendering:auto;enable-background:accumulate"
       d="m 96.346887,819.06166 c -0.496632,-0.0126 -1.000837,0.11747 -1.450645,0.40499 -0.814006,0.52028 -1.227346,1.42275 -1.175793,2.3237 -5.168751,3.51167 -7.018134,5.78371 -7.356589,7.85152 -0.188893,1.15406 0.327485,2.17144 0.870725,2.68343 0.543244,0.51199 1.156017,0.70076 1.156017,0.70076 l 0.791748,-2.45426 c 0,0 -0.08576,-0.0354 -0.178668,-0.12304 -0.09291,-0.0875 -0.151215,-0.0448 -0.09487,-0.38898 0.100716,-0.61535 1.373721,-2.72521 6.246929,-6.11066 0.781127,0.38073 1.732982,0.36639 2.518281,-0.13554 1.199489,-0.76665 1.550357,-2.36366 0.783699,-3.56315 -0.479155,-0.74969 -1.283114,-1.16759 -2.110832,-1.18877 z"
       id="path4326"
       inkscape:connector-curvature="0"
       inkscape:transform-center-x="2.1270249"
       inkscape:transform-center-y="4.259396" />
    <path
       style="color:#000000;font-style:normal;font-variant:normal;font-weight:normal;font-stretch:normal;font-size:medium;line-height:normal;font-family:sans-serif;text-indent:0;text-align:start;text-decoration:none;text-decoration-line:none;text-decoration-style:solid;text-decoration-color:#000000;letter-spacing:normal;word-spacing:normal;text-transform:none;direction:ltr;block-progression:tb;writing-mode:lr-tb;baseline-shift:baseline;text-anchor:start;white-space:normal;clip-rule:nonzero;display:inline;overflow:visible;visibility:visible;opacity:1;isolation:auto;mix-blend-mode:normal;color-interpolation:sRGB;color-interpolation-filters:linearRGB;solid-color:#000000;solid-opacity:1;fill:#333333;fill-opacity:1;fill-rule:evenodd;stroke:none;stroke-width:0.69999999;stroke-linecap:butt;stroke-linejoin:miter;stroke-miterlimit:4;stroke-dasharray:none;stroke-dashoffset:0;stroke-opacity:1;color-rendering:auto;image-rendering:auto;shape-rendering:auto;text-rendering:auto;enable-background:accumulate"
       d="m 96.112512,807.30412 c -2.339103,0.0589 -4.696047,0.68393 -6.858653,1.9325 -3.460177,1.99773 -5.797812,5.22477 -6.75792,8.80796 -0.960123,3.5832 -0.548766,7.54559 1.448964,11.00576 1.997732,3.46017 5.22476,5.80118 8.807961,6.76127 3.583182,0.96012 7.547256,0.54709 11.007426,-1.45064 6.92035,-3.99546 9.30441,-12.89505 5.30896,-19.81539 -2.74689,-4.75775 -7.81071,-7.37111 -12.956738,-7.24146 z m 0.104098,3.42177 c 3.923,-0.10661 7.76771,1.88768 9.87579,5.53897 3.06629,5.31097 1.25959,12.05297 -4.05139,15.11926 -2.655486,1.53315 -5.659809,1.83856 -8.398285,1.10478 -1.724914,-0.46218 -3.334366,-1.33616 -4.672615,-2.58228 -0.135409,-0.34166 -0.24583,-0.71634 -0.295503,-1.12156 -0.193803,-1.58097 0.304711,-3.74383 4.214252,-6.3281 l 0.621225,1.07455 2.573884,-4.46442 -5.152805,-0.002 0.669914,1.16018 c -3.022168,2.0069 -4.582732,4.12853 -5.201496,6.08129 -1.070329,-2.38738 -1.223481,-4.979 -0.582612,-7.37074 0.733772,-2.73848 2.500677,-5.18783 5.156171,-6.72099 1.65968,-0.95821 3.460285,-1.4408 5.24347,-1.48926 z"
       id="path4326-7"
       inkscape:connector-curvature="0" />
    <text
       sodipodi:linespacing="100%"
       id="text4165-2"
       y="823.91779"
       x="116.67039"
       style="font-style:normal;font-variant:normal;font-weight:normal;font-stretch:normal;font-size:24.06044388px;line-height:100%;font-family:Vestula;-inkscape-font-specification:Vestula;text-align:start;letter-spacing:0px;word-spacing:0px;text-anchor:start;display:inline;fill:#666666;fill-opacity:1;stroke:none;stroke-width:1px;stroke-linecap:butt;stroke-linejoin:miter;stroke-opacity:1"
       xml:space="preserve"
       inkscape:export-xdpi="150"
       inkscape:export-ydpi="150"><tspan
         style="font-style:normal;font-variant:normal;font-weight:bold;font-stretch:normal;font-size:13.12096024px;font-family:Vestula;-inkscape-font-specification:'Vestula Bold';text-align:start;letter-spacing:-0.27731371px;text-anchor:start;fill:#333333;fill-opacity:1"
         y="823.91779"
         x="116.67039"
         id="tspan4167-6"
         sodipodi:role="line"
         dx="0">RaMa-Scene</tspan><tspan
         style="font-style:italic;font-variant:normal;font-weight:normal;font-stretch:normal;font-size:9.18467236px;line-height:100%;font-family:Vestula;-inkscape-font-specification:'Vestula Italic';text-align:start;text-anchor:start;fill:#ff0000"
         y="834.6579"
         x="116.67039"
         sodipodi:role="line"
         id="tspan5156">Beta</tspan></text>
  </g>
</svg>
